# xmcd
#
# Track frame offsets:
# 150
# 8318
# 27377
# 37713
# 49914
# 51734
# 68831
# 87123
# 99977
# 139607
# 148988
# 154880
# 176458
# 201920
#
# Disc length: 2987 seconds
#
#
# Revision: 0
# Processed by: cddbd v1.5.1PL0 Copyright (c) Steve Scherf et al.
# Submitted via: FreeRIP 2.91 
#
DISCID=b90ba90e
DTITLE=Brian Free and Assurance - Live In New York City
DYEAR=2004
DGENRE=Gospel
TTITLE0=Choir Opening and introduction by Pastor Steven Carey
TTITLE1=Foundation Medley (acappella)
TTITLE2=Why Not Make It Now
TTITLE3=He's All That
TTITLE4=Group Introductions
TTITLE5=Goodness and Mercy
TTITLE6=Only By The Blood
TTITLE7=We'll Say Goodbye
TTITLE8=Introductions
TTITLE9=Knock No More
TTITLE10=Intro to Healed
TTITLE11=Healed
TTITLE12=For God So Loved
TTITLE13=Long As I Got King Jesus
EXTD=
EXTT0=
EXTT1=
EXTT2=
EXTT3=
EXTT4=
EXTT5=
EXTT6=
EXTT7=
EXTT8=
EXTT9=
EXTT10=
EXTT11=
EXTT12=
EXTT13=
PLAYORDER=
